<?xml version="1.0" encoding="utf-8"?>
<!-- Generator: Adobe Illustrator 23.0.1, SVG Export Plug-In . SVG Version: 6.00 Build 0)  -->
<svg version="1.1" id="Warstwa_1" xmlns="http://www.w3.org/2000/svg" xmlns:xlink="http://www.w3.org/1999/xlink" x="0px" y="0px"
	 viewBox="0 0 402.38 114.38" style="enable-background:new 0 0 402.38 114.38;" xml:space="preserve">
<style type="text/css">
	.st0{fill:#01807E;}
</style>
<g>
	<path d="M64.36,90.18c-1.51,2.48-4.13,4.51-7.87,6.08c-3.74,1.57-7.65,2.36-11.72,2.36c-7.66,0-13.68-1.91-18.06-5.74
		c-4.38-3.83-6.57-9.26-6.57-16.3c0-8.23,3.09-14.68,9.26-19.32s14.95-6.97,26.33-6.97c1.95,0,4.25,0.33,6.91,1
		c0-8.37-5.29-12.55-15.87-12.55c-6.24,0-11.47,1.04-15.67,3.12L27.5,28.95c5.71-2.74,12.51-4.12,20.39-4.12
		c10.85,0,18.79,2.47,23.84,7.4c5.05,4.94,7.57,14.29,7.57,28.06V75.5c0,9.47,1.9,15.43,5.71,17.86c-1.37,2.39-2.9,3.86-4.58,4.42
		c-1.68,0.55-3.61,0.83-5.78,0.83c-2.39,0-4.54-0.89-6.44-2.66C66.3,94.19,65.02,92.26,64.36,90.18z M62.76,63.82
		c-2.83-0.57-4.96-0.86-6.38-0.86c-13.1,0-19.66,4.29-19.66,12.88c0,6.38,3.7,9.56,11.09,9.56c9.96,0,14.94-4.98,14.94-14.94V63.82z
		"/>
	<path d="M310.82,66.8h-50.8c0.31,5.67,2.26,10.07,5.84,13.21c3.59,3.14,8.41,4.71,14.48,4.71c7.57,0,13.33-1.97,17.27-5.91
		l6.44,12.68c-5.84,4.74-14.57,7.11-26.16,7.11c-10.85,0-19.42-3.18-25.73-9.53c-6.31-6.35-9.46-15.22-9.46-26.6
		c0-11.2,3.46-20.28,10.39-27.23c6.93-6.95,15.24-10.43,24.94-10.43c10.31,0,18.59,3.08,24.84,9.23c6.24,6.15,9.36,13.99,9.36,23.51
		C312.22,59.61,311.75,62.69,310.82,66.8z M260.62,54.32h34.93c-1.15-10.4-6.91-15.61-17.27-15.61
		C268.81,38.71,262.92,43.92,260.62,54.32z"/>
	<path d="M320.85,97.28v-5.64l38.58-51h-37.92V26.16h62.16v5.84l-37.19,50.8h37.59v14.48H320.85z"/>
</g>
<polygon points="95.17,25.16 95.17,97.54 109.76,97.54 109.76,79.09 216.59,79.09 216.59,97.54 232.59,97.54 232.59,40.3 
	217.06,40.3 217.06,63.95 109.76,63.95 109.76,25.16 "/>
<path class="st0" d="M147.88,58.55h-32.94c0,0-0.06-11.35,11.77-11.35C140.04,47.2,147.88,58.55,147.88,58.55z"/>
</svg>
